<svg width="48" height="30" viewBox="0 0 48 30" fill="none" xmlns="http://www.w3.org/2000/svg">
<rect width="48" height="30" rx="4" fill="#231F20"/>
<path fill-rule="evenodd" clip-rule="evenodd" d="M27.5417 17.9526C25.8065 19.1881 23.291 19.8452 21.1247 19.8452C18.0895 19.8452 15.3554 18.763 13.2869 16.9602C13.1244 16.8187 13.2694 16.6255 13.4645 16.7352C15.696 17.9879 18.4558 18.7431 21.3067 18.7431C23.2302 18.7431 25.344 18.3578 27.2894 17.5616C27.5826 17.4417 27.8285 17.7483 27.5417 17.9526Z" fill="#FF9900"/>
<path fill-rule="evenodd" clip-rule="evenodd" d="M28.4606 17.1576C28.2385 16.8835 26.994 17.0281 26.4346 17.0925C26.2649 17.1116 26.2387 16.9694 26.3917 16.8655C27.385 16.1928 29.0117 16.3871 29.2012 16.6125C29.3916 16.8395 29.1516 18.4138 28.2206 19.1651C28.0772 19.2809 27.9413 19.2192 28.0049 19.0659C28.2143 18.5618 28.6835 17.4321 28.4606 17.1576Z" fill="#FF9900"/>
<path fill-rule="evenodd" clip-rule="evenodd" d="M32.2771 11.2072C33.6491 11.2072 34.3901 12.3441 34.3901 13.7885C34.3901 15.1846 33.5712 16.2925 32.2771 16.2925C30.9305 16.2925 30.1974 15.1555 30.1974 13.7402C30.1974 12.3146 30.9393 11.2072 32.2771 11.2072ZM32.2854 12.1417C31.6036 12.1417 31.5611 13.0372 31.5611 13.5961C31.5611 14.1542 31.552 15.3487 32.2771 15.3487C32.9935 15.3487 33.0273 14.3854 33.0273 13.7981C33.0273 13.4125 33.0102 12.9502 32.8898 12.5841C32.7861 12.2667 32.5787 12.1417 32.2854 12.1417Z" fill="white"/>
<path fill-rule="evenodd" clip-rule="evenodd" d="M36.1698 16.1959H35.2488C35.1562 16.1901 35.0831 16.1192 35.0831 16.0314L35.0819 11.4533C35.0895 11.3693 35.1661 11.3038 35.2591 11.3038H36.1162C36.1968 11.308 36.2632 11.3609 36.2807 11.4318V12.1318H36.2978C36.5568 11.5062 36.9192 11.2072 37.5577 11.2072C37.9713 11.2072 38.3774 11.3517 38.6361 11.7469C38.8776 12.1122 38.8776 12.729 38.8776 13.1721V16.0517C38.8673 16.133 38.7922 16.1959 38.7008 16.1959H37.7742C37.6884 16.1905 37.6189 16.1299 37.609 16.0517V13.5673C37.609 13.0659 37.6693 12.3342 37.0312 12.3342C36.8071 12.3342 36.5993 12.4783 36.496 12.7002C36.3669 12.9797 36.3494 13.2588 36.3494 13.5673V16.0314C36.3478 16.1223 36.2683 16.1959 36.1698 16.1959Z" fill="white"/>
<path fill-rule="evenodd" clip-rule="evenodd" d="M26.2766 12.1109V11.4574C26.277 11.3581 26.3548 11.2918 26.4486 11.2918L29.4866 11.2914C29.5836 11.2914 29.6615 11.3596 29.6623 11.4566L29.6615 12.017C29.6607 12.1113 29.5788 12.2348 29.4326 12.4291L27.8588 14.5969C28.4436 14.5838 29.0611 14.6682 29.5919 14.956C29.7119 15.0204 29.7441 15.1167 29.7528 15.211V15.909C29.7528 16.0048 29.644 16.116 29.5295 16.0581C28.5946 15.5859 27.3533 15.5341 26.3199 16.0639C26.2142 16.1183 26.1033 16.0087 26.1033 15.9125V15.2485C26.1033 15.1435 26.1053 14.9614 26.2166 14.7996L28.0395 12.2762L26.4522 12.2758C26.3548 12.2758 26.2774 12.2091 26.2766 12.1109Z" fill="white"/>
<path fill-rule="evenodd" clip-rule="evenodd" d="M23.8549 14.0105C23.8549 14.3582 23.8632 14.6476 23.682 14.9565C23.5354 15.2072 23.3018 15.3617 23.0423 15.3617C22.6875 15.3617 22.4801 15.1011 22.4801 14.7154C22.4801 13.9553 23.1861 13.8173 23.8549 13.8173V14.0105ZM24.7862 16.1844C24.725 16.2373 24.6372 16.2407 24.5685 16.2051C24.2613 15.9593 24.2065 15.8451 24.0388 15.6109C23.5314 16.11 23.1718 16.2587 22.515 16.2587C21.7367 16.2587 21.1315 15.796 21.1315 14.8691C21.1315 14.1458 21.5376 13.6532 22.1169 13.4113C22.6184 13.1997 23.3185 13.161 23.8549 13.1031V12.9874C23.8549 12.775 23.8719 12.5243 23.7428 12.3407C23.63 12.1766 23.4142 12.1091 23.2235 12.1091C22.8715 12.1091 22.558 12.2836 22.4809 12.6443C22.465 12.7244 22.4038 12.8041 22.3204 12.8083L21.4244 12.7152C21.3485 12.6983 21.2646 12.6401 21.2865 12.5281C21.4923 11.4797 22.4741 11.1635 23.353 11.1635C23.8032 11.1635 24.3909 11.2792 24.7457 11.6074C25.1947 12.0125 25.1522 12.553 25.1522 13.1418V14.5307C25.1522 14.9493 25.3321 15.1321 25.501 15.3571C25.5594 15.4384 25.5733 15.535 25.4978 15.594C25.3091 15.747 24.9737 16.0283 24.789 16.1867L24.7862 16.1844Z" fill="white"/>
<path fill-rule="evenodd" clip-rule="evenodd" d="M15.1945 16.1959H14.2703C14.1825 16.1905 14.1118 16.1265 14.105 16.0452L14.1058 11.4686C14.1058 11.3766 14.1853 11.3038 14.2838 11.3038H15.1445C15.2351 11.3084 15.3074 11.3743 15.3133 11.4575V12.0547H15.3304C15.5549 11.477 15.9773 11.2072 16.5467 11.2072C17.1248 11.2072 17.4867 11.477 17.7462 12.0547C17.9703 11.477 18.4789 11.2072 19.0224 11.2072C19.4106 11.2072 19.8334 11.3616 20.0925 11.7078C20.3857 12.0938 20.3253 12.6519 20.3253 13.143L20.3245 16.0314C20.3245 16.1223 20.2446 16.1959 20.1465 16.1959H19.2239C19.1305 16.1901 19.0578 16.1192 19.0578 16.0314L19.057 13.6053C19.057 13.4125 19.0749 12.9314 19.0316 12.7482C18.9624 12.44 18.7554 12.3533 18.488 12.3533C18.2635 12.3533 18.0307 12.4978 17.9357 12.729C17.8412 12.9601 17.8491 13.345 17.8491 13.6053V16.0314C17.8491 16.1223 17.7693 16.1959 17.6711 16.1959H16.7481C16.6555 16.1901 16.582 16.1192 16.582 16.0314L16.5808 13.6053C16.5808 13.0951 16.6674 12.3441 16.0118 12.3441C15.3471 12.3441 15.3737 13.0755 15.3737 13.6053L15.3729 16.0314C15.3729 16.1223 15.2931 16.1959 15.1945 16.1959Z" fill="white"/>
<path fill-rule="evenodd" clip-rule="evenodd" d="M11.739 14.0105C11.739 14.3582 11.7473 14.6476 11.5657 14.9565C11.4187 15.2072 11.1851 15.3617 10.9256 15.3617C10.5712 15.3617 10.3634 15.1011 10.3634 14.7154C10.3634 13.9553 11.0702 13.8173 11.739 13.8173V14.0105ZM12.6703 16.1844C12.6091 16.2373 12.5209 16.2407 12.4518 16.2051C12.145 15.9593 12.0902 15.8451 11.9221 15.6109C11.4151 16.11 11.0555 16.2587 10.3983 16.2587C9.62037 16.2587 9.01483 15.796 9.01483 14.8691C9.01483 14.1458 9.4217 13.6532 10.0006 13.4113C10.5024 13.1997 11.2026 13.161 11.739 13.1031V12.9874C11.739 12.775 11.756 12.5243 11.6261 12.3407C11.5137 12.1766 11.2979 12.1091 11.1076 12.1091C10.7552 12.1091 10.4417 12.2836 10.3646 12.6443C10.3487 12.7244 10.2879 12.8041 10.2037 12.8083L9.30846 12.7152C9.23217 12.6983 9.14873 12.6401 9.17019 12.5281C9.37601 11.4797 10.3582 11.1635 11.2371 11.1635C11.6865 11.1635 12.275 11.2792 12.629 11.6074C13.0788 12.0125 13.0355 12.553 13.0355 13.1418V14.5307C13.0355 14.9493 13.2154 15.1321 13.3843 15.3571C13.4431 15.4384 13.4566 15.535 13.3815 15.594C13.1928 15.747 12.857 16.0283 12.6727 16.1867L12.6703 16.1844Z" fill="white"/>
</svg>
