<svg width="30" height="30" viewBox="0 0 30 30" fill="none" xmlns="http://www.w3.org/2000/svg">
<mask id="mask0" mask-type="alpha" maskUnits="userSpaceOnUse" x="7" y="7" width="16" height="16">
<path fill-rule="evenodd" clip-rule="evenodd" d="M22.5796 9.75734C22.3756 9.23184 22.1036 8.78671 21.6584 8.34158C21.2133 7.89645 20.7682 7.62442 20.2427 7.4204C19.7357 7.22257 19.1484 7.08655 18.3014 7.04946L18.287 7.04883C17.4451 7.01223 17.1639 7 15 7C12.8238 7 12.5518 7.00618 11.6986 7.04946C10.8454 7.08655 10.2643 7.22257 9.75734 7.4204C9.23184 7.62442 8.78671 7.89645 8.34158 8.34158C7.89645 8.78671 7.62442 9.23184 7.4204 9.75734C7.22257 10.2643 7.08655 10.8516 7.04946 11.6986L7.04883 11.713C7.01223 12.5549 7 12.8361 7 15C7 17.1762 7.00618 17.4482 7.04946 18.3014C7.08655 19.1546 7.22257 19.7357 7.4204 20.2427C7.62442 20.7682 7.89645 21.2133 8.34158 21.6584C8.78671 22.1036 9.23184 22.3756 9.75734 22.5796C10.2643 22.7774 10.8516 22.9134 11.6986 22.9505L11.713 22.9512C12.5549 22.9878 12.8361 23 15 23C17.1762 23 17.4482 22.9938 18.3014 22.9505C19.1546 22.9134 19.7357 22.7774 20.2427 22.5796C20.7682 22.3756 21.2133 22.1036 21.6584 21.6584C22.1036 21.2133 22.3756 20.7682 22.5796 20.2427C22.7774 19.7357 22.9134 19.1484 22.9505 18.3014L22.9512 18.287C22.9878 17.4451 23 17.1639 23 15C23 12.8238 22.9938 12.5518 22.9505 11.6986C22.9134 10.8454 22.7774 10.2643 22.5796 9.75734ZM20.9548 17.9548C20.9209 18.6667 20.8023 19.0565 20.7006 19.3107C20.5706 19.6497 20.4068 19.8983 20.1525 20.1525C19.8983 20.4068 19.6554 20.565 19.3107 20.7006C19.0508 20.8023 18.6667 20.9209 17.9548 20.9548L17.918 20.9564C17.1731 20.9891 16.9235 21 15 21C13.0452 21 12.8136 20.9944 12.0452 20.9548C11.3333 20.9209 10.9435 20.8023 10.6893 20.7006C10.3503 20.5706 10.1017 20.4068 9.84746 20.1525C9.59322 19.8983 9.43503 19.6554 9.29944 19.3107C9.19774 19.0508 9.0791 18.6667 9.0452 17.9548L9.04386 17.9242C9.011 17.1743 9 16.9233 9 15C9 13.0508 9.00565 12.8136 9.0452 12.0452C9.0791 11.3333 9.19774 10.9435 9.29944 10.6893C9.42938 10.3503 9.59322 10.1017 9.84746 9.84746C10.1017 9.59322 10.3446 9.43503 10.6893 9.29944C10.9492 9.19774 11.3333 9.0791 12.0452 9.0452L12.0758 9.04386C12.8257 9.011 13.0767 9 15 9C16.9492 9 17.1864 9.00565 17.9548 9.0452C18.6667 9.0791 19.0565 9.19774 19.3107 9.29944C19.6497 9.42938 19.8983 9.59322 20.1525 9.84746C20.4068 10.1017 20.565 10.3446 20.7006 10.6893C20.8023 10.9492 20.9209 11.3333 20.9548 12.0452L20.9561 12.0758V12.0758C20.989 12.8257 21 13.0768 21 15C21 16.9306 20.9889 17.1818 20.9558 17.933L20.9548 17.9548ZM19 12C19.5523 12 20 11.5523 20 11C20 10.4477 19.5523 10 19 10C18.4477 10 18 10.4477 18 11C18 11.5523 18.4477 12 19 12ZM15 11C12.7925 11 11 12.7925 11 15C11 17.2075 12.7925 19 15 19C17.2075 19 19 17.2075 19 15C19 12.7925 17.2075 11 15 11ZM13 15C13 16.1065 13.8981 17 15 17C16.1019 17 17 16.1019 17 15C17 13.8935 16.1065 13 15 13C13.8935 13 13 13.8981 13 15Z" fill="white"/>
</mask>
<g mask="url(#mask0)">
<rect x="2" y="2" width="26" height="26" fill="#D8D8D8"/>
</g>
</svg>
