<svg width="30" height="30" viewBox="0 0 30 30" fill="none" xmlns="http://www.w3.org/2000/svg">
<mask id="mask0" mask-type="alpha" maskUnits="userSpaceOnUse" x="6" y="8" width="18" height="15">
<path fill-rule="evenodd" clip-rule="evenodd" d="M24 9.77519C23.3378 10.0769 22.6266 10.2806 21.8788 10.3712C22.6412 9.90269 23.2269 9.16077 23.5032 8.27692C22.7892 8.71019 21.9992 9.02635 21.1581 9.19538C20.4841 8.45981 19.5242 8 18.4614 8C16.4218 8 14.7693 9.695 14.7693 11.7863C14.7693 12.0829 14.8014 12.3725 14.8644 12.6494C11.7952 12.4913 9.07427 10.9838 7.25244 8.69288C6.93511 9.2525 6.75281 9.90269 6.75281 10.5967C6.75281 11.911 7.40491 13.0694 8.39516 13.749C7.79032 13.7288 7.22093 13.5592 6.72299 13.2754C6.72243 13.291 6.72243 13.3077 6.72243 13.3227C6.72243 15.1579 7.99512 16.6885 9.68473 17.0363C9.37528 17.1223 9.04895 17.169 8.71193 17.169C8.47337 17.169 8.24269 17.1454 8.01763 17.1015C8.48687 18.605 9.85128 19.7 11.4666 19.7312C10.2035 20.7465 8.61122 21.3529 6.8811 21.3529C6.5829 21.3529 6.28863 21.335 6 21.2998C7.63391 22.3729 9.57502 23 11.6607 23C18.4529 23 22.168 17.2302 22.168 12.226C22.168 12.0621 22.1635 11.8983 22.1568 11.7356C22.8787 11.2019 23.5043 10.5356 24 9.77519Z" fill="white"/>
</mask>
<g mask="url(#mask0)">
<rect x="2" y="2" width="26" height="26" fill="#D8D8D8"/>
</g>
</svg>
