<svg width="31" height="30" viewBox="0 0 31 30" fill="none" xmlns="http://www.w3.org/2000/svg">
<mask id="mask0" mask-type="alpha" maskUnits="userSpaceOnUse" x="5" y="5" width="21" height="20">
<path fill-rule="evenodd" clip-rule="evenodd" d="M11.7838 21C10.6838 21 9.79378 21.9 9.79378 23C9.79378 24.1 10.6838 25 11.7838 25C12.8838 25 13.7838 24.1 13.7838 23C13.7838 21.9 12.8838 21 11.7838 21ZM5.78378 5V7H7.78378L11.3838 14.59L10.0338 17.04C9.87378 17.32 9.78378 17.65 9.78378 18C9.78378 19.1 10.6838 20 11.7838 20H23.7838V18H12.2038C12.0638 18 11.9538 17.89 11.9538 17.75L11.9838 17.63L12.8838 16H20.3338C21.0838 16 21.7438 15.59 22.0838 14.97L25.6638 8.48C25.7438 8.34 25.7838 8.17 25.7838 8C25.7838 7.45 25.3338 7 24.7838 7H9.99378L9.05378 5H5.78378ZM21.7838 21C20.6838 21 19.7938 21.9 19.7938 23C19.7938 24.1 20.6838 25 21.7838 25C22.8838 25 23.7838 24.1 23.7838 23C23.7838 21.9 22.8838 21 21.7838 21Z" fill="white"/>
</mask>
<g mask="url(#mask0)">
<rect x="2.78378" y="2" width="26" height="26" fill="#D8D8D8"/>
</g>
</svg>
