<svg width="31" height="30" viewBox="0 0 31 30" fill="none" xmlns="http://www.w3.org/2000/svg">
<mask id="mask0" mask-type="alpha" maskUnits="userSpaceOnUse" x="5" y="5" width="21" height="20">
<path fill-rule="evenodd" clip-rule="evenodd" d="M15.7838 5C10.2638 5 5.78381 9.48 5.78381 15C5.78381 20.52 10.2638 25 15.7838 25C21.3038 25 25.7838 20.52 25.7838 15C25.7838 9.48 21.3038 5 15.7838 5ZM15.7838 8C17.4438 8 18.7838 9.34 18.7838 11C18.7838 12.66 17.4438 14 15.7838 14C14.1238 14 12.7838 12.66 12.7838 11C12.7838 9.34 14.1238 8 15.7838 8ZM15.7838 22.2C13.2838 22.2 11.0738 20.92 9.78381 18.98C9.81381 16.99 13.7838 15.9 15.7838 15.9C17.7738 15.9 21.7538 16.99 21.7838 18.98C20.4938 20.92 18.2838 22.2 15.7838 22.2Z" fill="white"/>
</mask>
<g mask="url(#mask0)">
<rect x="2.78381" y="2" width="26" height="26" fill="#D8D8D8"/>
</g>
</svg>
