<svg width="31" height="30" viewBox="0 0 31 30" fill="none" xmlns="http://www.w3.org/2000/svg">
<mask id="mask0" mask-type="alpha" maskUnits="userSpaceOnUse" x="5" y="6" width="21" height="19">
<path fill-rule="evenodd" clip-rule="evenodd" d="M20.2838 6C18.5438 6 16.8738 6.81 15.7838 8.09C14.6938 6.81 13.0238 6 11.2838 6C8.20378 6 5.78378 8.42 5.78378 11.5C5.78378 15.28 9.18378 18.36 14.3338 23.04L15.7838 24.35L17.2338 23.03C22.3838 18.36 25.7838 15.28 25.7838 11.5C25.7838 8.42 23.3638 6 20.2838 6ZM15.8838 21.55L15.7838 21.65L15.6838 21.55C10.9238 17.24 7.78378 14.39 7.78378 11.5C7.78378 9.5 9.28378 8 11.2838 8C12.8238 8 14.3238 8.99 14.8538 10.36H16.7238C17.2438 8.99 18.7438 8 20.2838 8C22.2838 8 23.7838 9.5 23.7838 11.5C23.7838 14.39 20.6438 17.24 15.8838 21.55Z" fill="white"/>
</mask>
<g mask="url(#mask0)">
<rect x="2.78378" y="2" width="26" height="26" fill="#D8D8D8"/>
</g>
</svg>
