<svg width="29" height="28" viewBox="0 0 29 28" fill="none" xmlns="http://www.w3.org/2000/svg">
<mask id="mask0" mask-type="alpha" maskUnits="userSpaceOnUse" x="6" y="5" width="17" height="17">
<path fill-rule="evenodd" clip-rule="evenodd" d="M18.0505 15.8667H17.3131L17.0518 15.6147C17.9665 14.5507 18.5171 13.1693 18.5171 11.6667C18.5171 8.31601 15.8011 5.60001 12.4505 5.60001C9.09979 5.60001 6.38379 8.31601 6.38379 11.6667C6.38379 15.0173 9.09979 17.7333 12.4505 17.7333C13.9531 17.7333 15.3345 17.1827 16.3985 16.268L16.6505 16.5293V17.2667L21.3171 21.924L22.7078 20.5333L18.0505 15.8667ZM12.4505 15.8667C10.1265 15.8667 8.25046 13.9907 8.25046 11.6667C8.25046 9.34267 10.1265 7.46667 12.4505 7.46667C14.7745 7.46667 16.6505 9.34267 16.6505 11.6667C16.6505 13.9907 14.7745 15.8667 12.4505 15.8667Z" fill="white"/>
</mask>
<g mask="url(#mask0)">
<rect x="2.65045" y="1.86667" width="24.2667" height="24.2667" fill="#D8D8D8"/>
</g>
</svg>
