<svg width="48" height="30" viewBox="0 0 48 30" fill="none" xmlns="http://www.w3.org/2000/svg">
<rect width="48" height="30" rx="4" fill="#14457C"/>
<path fill-rule="evenodd" clip-rule="evenodd" d="M26.8558 14.9687C26.8558 19.9221 22.8658 23.9371 17.9436 23.9371C13.0211 23.9371 9.03082 19.9221 9.03082 14.9687C9.03082 10.0154 13.0211 6 17.9436 6C22.8658 6 26.8558 10.0154 26.8558 14.9687Z" fill="#D82332"/>
<path fill-rule="evenodd" clip-rule="evenodd" d="M29.9968 6C27.6935 6 25.5953 6.87917 24.0134 8.32143C23.6917 8.61539 23.3911 8.93287 23.1141 9.2709H24.9145C25.1604 9.57222 25.3872 9.88899 25.5939 10.2208H22.4342C22.2453 10.5257 22.0734 10.8424 21.9208 11.1707H26.1073C26.2504 11.4781 26.3763 11.7947 26.4848 12.1201H21.5434C21.4404 12.4295 21.3538 12.7463 21.2844 13.0695H26.7434C26.8739 13.6817 26.9435 14.317 26.9435 14.9687C26.9435 15.9643 26.7824 16.9227 26.4848 17.8178H21.5434C21.6517 18.1431 21.7777 18.46 21.9206 18.7678H26.1073C25.9544 19.0952 25.7832 19.4123 25.5932 19.7176H22.4342C22.6404 20.0484 22.8676 20.3656 23.1141 20.6665H24.9139C24.6373 21.0048 24.3366 21.3223 24.0138 21.6162C25.5956 23.0585 27.6935 23.9371 29.9968 23.9371C34.9189 23.9371 38.9092 19.9221 38.9092 14.9687C38.9092 10.0158 34.9189 6 29.9968 6Z" fill="#F1AB3E"/>
<path fill-rule="evenodd" clip-rule="evenodd" d="M37.6224 19.8959C37.6224 19.736 37.7514 19.6063 37.9104 19.6063C38.0697 19.6063 38.1982 19.736 38.1982 19.8959C38.1982 20.0559 38.0697 20.1857 37.9104 20.1857C37.7514 20.1857 37.6224 20.0559 37.6224 19.8959ZM37.9104 20.1163C38.0308 20.1163 38.1291 20.0175 38.1291 19.8959C38.1291 19.7739 38.0308 19.6759 37.9104 19.6759C37.7894 19.6759 37.6914 19.7739 37.6914 19.8959C37.6914 20.0175 37.7894 20.1163 37.9104 20.1163ZM37.8714 20.023H37.8122V19.7689H37.9194C37.9415 19.7689 37.9643 19.7689 37.9841 19.7811C38.0042 19.7955 38.016 19.8198 38.016 19.845C38.016 19.8738 37.9996 19.9007 37.9721 19.9109L38.0189 20.023H37.9534L37.9145 19.9225H37.8714V20.023ZM37.8714 19.8787H37.9041C37.9162 19.8787 37.9291 19.8796 37.9401 19.8738C37.9497 19.8674 37.9549 19.8561 37.9549 19.8444C37.9549 19.8348 37.9484 19.8235 37.9404 19.8185C37.93 19.8124 37.9136 19.8137 37.9027 19.8137H37.8714V19.8787Z" fill="#F1AB3E"/>
<path fill-rule="evenodd" clip-rule="evenodd" d="M37.6224 17.0614C37.6224 16.9009 37.7517 16.7716 37.9098 16.7716C38.0691 16.7716 38.1976 16.9009 38.1976 17.0614C38.1976 17.2209 38.0691 17.351 37.9098 17.351C37.7517 17.351 37.6224 17.2209 37.6224 17.0614ZM37.9098 17.2816C38.0311 17.2816 38.1291 17.1828 38.1291 17.0614C38.1291 16.94 38.0311 16.8412 37.9098 16.8412C37.7891 16.8412 37.6914 16.94 37.6914 17.0614C37.6914 17.1828 37.7891 17.2816 37.9098 17.2816ZM37.8711 17.188H37.8122V16.9339H37.9191C37.9415 16.9339 37.9641 16.9347 37.9836 16.9469C38.0045 16.9607 38.0158 16.9851 38.0158 17.0103C38.0158 17.0391 37.9993 17.066 37.9724 17.0762L38.0189 17.188H37.9534L37.9145 17.0875H37.8711V17.188ZM37.8711 17.044H37.9038C37.9156 17.044 37.9294 17.0451 37.9398 17.0391C37.9494 17.033 37.9543 17.0208 37.9543 17.0097C37.9543 17.0001 37.9487 16.9893 37.9404 16.9834C37.9303 16.9777 37.9136 16.9792 37.9027 16.9792H37.8711V17.044Z" fill="#FFFFFE"/>
<path fill-rule="evenodd" clip-rule="evenodd" d="M36.7107 12.9448L36.4956 14.2591C36.2315 13.9089 35.9473 13.6552 35.5721 13.6552C35.0838 13.6552 34.6395 14.0277 34.3485 14.5762C33.9432 14.4915 33.5246 14.3477 33.5246 14.3477L33.5243 14.3512C33.5564 14.0447 33.5702 13.8581 33.567 13.7944H32.6781C32.5574 14.9397 32.3419 16.0994 32.1739 17.2451L32.1294 17.494H33.0977C33.2283 16.6402 33.3281 15.9304 33.4019 15.3683C33.7328 15.0674 33.8984 14.8055 34.2321 14.8225C34.0842 15.1828 33.9977 15.5975 33.9977 16.023C33.9977 16.9475 34.4624 17.5579 35.166 17.5579C35.5207 17.5579 35.7926 17.4348 36.0581 17.1496L36.0125 17.4937H36.928L37.6649 12.9448H36.7107ZM35.5005 16.6394C35.1712 16.6394 35.0046 16.3936 35.0046 15.91C35.0046 15.1828 35.3163 14.6673 35.755 14.6673C36.0876 14.6673 36.2677 14.9218 36.2677 15.3918C36.2677 16.1253 35.9508 16.6394 35.5005 16.6394Z" fill="#0C2D5A"/>
<path fill-rule="evenodd" clip-rule="evenodd" d="M31.1485 15.9296C31.0475 15.9177 31.0027 15.9145 30.9331 15.9145C30.3848 15.9145 30.1072 16.1035 30.1072 16.4773C30.1072 16.7073 30.2427 16.8546 30.4539 16.8546C30.8477 16.8546 31.1323 16.477 31.1485 15.9296ZM31.8527 17.5776C31.7239 17.5776 31.0511 17.5776 31.0511 17.5776L31.0693 17.1945C30.8246 17.4971 30.4985 17.6418 30.0555 17.6418C29.5307 17.6418 29.1717 17.2293 29.1717 16.6309C29.1717 15.7298 29.7965 15.2051 30.8701 15.2051C30.9799 15.2051 31.1201 15.2152 31.2639 15.2339C31.2939 15.1114 31.302 15.0594 31.302 14.9931C31.302 14.7484 31.1339 14.6573 30.6817 14.6573C30.2085 14.6516 29.8185 14.7703 29.6575 14.8231C29.6677 14.7619 29.7917 13.9913 29.7917 13.9913C30.2739 13.849 30.5917 13.7953 30.9496 13.7953C31.7804 13.7953 32.2207 14.171 32.2197 14.8802C32.2216 15.0703 32.1903 15.3054 32.1416 15.6133C32.0576 16.1486 31.8775 17.2983 31.8527 17.5776Z" fill="#0C2D5A"/>
<path fill-rule="evenodd" clip-rule="evenodd" d="M28.5962 13.9299C28.8649 13.9299 29.1158 14.0002 29.4609 14.1754L29.6193 13.1882C29.4771 13.1321 28.9783 12.8031 28.5558 12.8031C27.9085 12.8031 27.3604 13.1268 26.9759 13.6599C26.4142 13.4728 26.1831 13.8509 25.9003 14.2279L25.6489 14.2869C25.6679 14.1629 25.6852 14.0396 25.6797 13.9148H24.7906C24.6696 15.0602 24.4545 16.2198 24.2861 17.3656L24.2421 17.6145H25.2102C25.3716 16.558 25.4599 15.8818 25.5138 15.4237L25.8783 15.2205C25.9331 15.0163 26.1031 14.9477 26.4449 14.956C26.4004 15.1972 26.3762 15.4514 26.3762 15.7143C26.3762 16.9248 27.0259 17.6784 28.0672 17.6784C28.3354 17.6784 28.5659 17.643 28.9227 17.5452L29.0921 16.5085C28.7714 16.6671 28.5087 16.7418 28.2704 16.7418C27.7079 16.7418 27.3676 16.3239 27.3676 15.6335C27.3676 14.6316 27.8735 13.9299 28.5962 13.9299Z" fill="#0C2D5A"/>
<path fill-rule="evenodd" clip-rule="evenodd" d="M23.9093 17.4921C23.5789 17.5939 23.2596 17.642 22.9223 17.6418C21.8453 17.6411 21.2844 17.0748 21.2844 15.9914C21.2844 14.7265 21.9982 13.7953 22.967 13.7953C23.7607 13.7953 24.2669 14.3166 24.2669 15.1348C24.2669 15.4059 24.2317 15.6705 24.1486 16.0443H22.2332C22.1682 16.581 22.5097 16.805 23.069 16.805C23.4131 16.805 23.7238 16.7333 24.0694 16.5717L23.9093 17.4921ZM23.3687 15.2982C23.3739 15.2208 23.4706 14.6379 22.921 14.6379C22.6148 14.6379 22.3958 14.8733 22.3065 15.2982H23.3687Z" fill="#0C2D5A"/>
<path fill-rule="evenodd" clip-rule="evenodd" d="M20.9135 17.5732C20.6488 17.6571 20.4424 17.6935 20.2186 17.6935C19.7239 17.6935 19.4538 17.4074 19.4538 16.8811C19.447 16.717 19.5252 16.2877 19.5866 15.8948C19.6424 15.5488 20.0062 13.3701 20.0062 13.3701H20.9679L20.8555 13.93H21.3491L21.2177 14.8189H20.7224C20.6107 15.523 20.4512 16.3989 20.4494 16.5152C20.4494 16.7065 20.5508 16.7893 20.781 16.7893C20.8911 16.7893 20.9765 16.7784 21.0418 16.7544L20.9135 17.5732Z" fill="#0C2D5A"/>
<path fill-rule="evenodd" clip-rule="evenodd" d="M17.1435 15.0476C17.1435 15.5161 17.3691 15.8381 17.8805 16.0809C18.2722 16.2662 18.3328 16.3211 18.3328 16.4892C18.3328 16.7198 18.1601 16.8238 17.7771 16.8238C17.4884 16.8238 17.22 16.7788 16.9101 16.6783C16.9101 16.6783 16.7833 17.4934 16.7773 17.5319C16.9971 17.5804 17.1933 17.6246 17.784 17.6418C18.8052 17.6418 19.2767 17.2507 19.2767 16.4053C19.2767 15.8968 19.0793 15.5985 18.5946 15.3746C18.189 15.1868 18.1424 15.1453 18.1424 14.9724C18.1424 14.7724 18.3031 14.6695 18.6159 14.6695C18.8056 14.6695 19.0652 14.6908 19.3111 14.7256L19.4488 13.8677C19.1983 13.8279 18.8186 13.7953 18.5971 13.7953C17.5147 13.7953 17.1402 14.3642 17.1435 15.0476Z" fill="#0C2D5A"/>
<path fill-rule="evenodd" clip-rule="evenodd" d="M15.9379 15.9296C15.8364 15.9177 15.7917 15.9145 15.7219 15.9145C15.1735 15.9145 14.8959 16.1035 14.8959 16.4773C14.8959 16.7073 15.0314 16.8546 15.2428 16.8546C15.637 16.8546 15.9211 16.477 15.9379 15.9296ZM16.6415 17.5776C16.5126 17.5776 15.84 17.5776 15.84 17.5776L15.8583 17.1945C15.6138 17.4971 15.2874 17.6418 14.8442 17.6418C14.3198 17.6418 13.9604 17.2293 13.9604 16.6309C13.9604 15.7298 14.5856 15.2051 15.659 15.2051C15.7688 15.2051 15.9094 15.2152 16.0533 15.2339C16.0833 15.1114 16.0912 15.0594 16.0912 14.9931C16.0912 14.7484 15.9226 14.6573 15.4708 14.6573C14.9971 14.6516 14.607 14.7703 14.4464 14.8231C14.4566 14.7619 14.5807 13.9913 14.5807 13.9913C15.0628 13.849 15.3808 13.7953 15.7387 13.7953C16.5695 13.7953 17.0095 14.171 17.0087 14.8802C17.0104 15.0703 16.9791 15.3054 16.9305 15.6133C16.8464 16.1486 16.6662 17.2983 16.6415 17.5776Z" fill="#0C2D5A"/>
<path fill-rule="evenodd" clip-rule="evenodd" d="M13.4741 17.6354H12.5066L13.061 14.1386L11.8234 17.6354H11.164L11.0824 14.1589L10.4999 17.6354H9.59424L10.3507 13.0867H11.7421L11.7809 15.9026L12.7197 13.0867H14.2224L13.4741 17.6354Z" fill="#0C2D5A"/>
<path fill-rule="evenodd" clip-rule="evenodd" d="M37.3131 17.3519H36.398L36.4434 17.0076C36.1779 17.2929 35.9058 17.4161 35.5512 17.4161C34.848 17.4161 34.3829 16.8063 34.3829 15.8808C34.3829 14.6503 35.1042 13.6131 35.9572 13.6131C36.3325 13.6131 36.6166 13.7673 36.8812 14.1177L37.0959 12.8031H38.0501L37.3131 17.3519ZM35.8858 16.4971C36.3366 16.4971 36.6529 15.9833 36.6529 15.2505C36.6529 14.7804 36.4728 14.5251 36.1401 14.5251C35.7014 14.5251 35.3897 15.0406 35.3897 15.7681C35.3897 16.2524 35.5567 16.4971 35.8858 16.4971Z" fill="#FFFFFE"/>
<path fill-rule="evenodd" clip-rule="evenodd" d="M32.9597 13.5516C32.8386 14.6966 32.6235 15.8564 32.4552 17.002L32.4111 17.2509H33.3789C33.7249 14.9886 33.8083 14.5471 34.3514 14.6022C34.4378 14.1392 34.5986 13.7337 34.7186 13.5293C34.3134 13.4443 34.087 13.6747 33.7904 14.1127C33.8141 13.9232 33.8568 13.7394 33.8487 13.5516H32.9597Z" fill="#FFFFFE"/>
<path fill-rule="evenodd" clip-rule="evenodd" d="M31.4301 15.6462C31.3291 15.6343 31.2844 15.631 31.2148 15.631C30.6665 15.631 30.3889 15.8201 30.3889 16.1938C30.3889 16.4239 30.5244 16.5711 30.7356 16.5711C31.1294 16.5711 31.4139 16.1936 31.4301 15.6462ZM32.1344 17.2941C32.0056 17.2941 31.3328 17.2941 31.3328 17.2941L31.351 16.911C31.1063 17.2136 30.7801 17.3583 30.3372 17.3583C29.8124 17.3583 29.4534 16.9459 29.4534 16.3475C29.4534 15.4463 30.0782 14.9217 31.1518 14.9217C31.2615 14.9217 31.4018 14.9317 31.5456 14.9504C31.5756 14.828 31.5837 14.776 31.5837 14.7096C31.5837 14.465 31.4156 14.3739 30.9634 14.3739C30.4901 14.3682 30.1001 14.4868 29.9391 14.5397C29.9494 14.4785 30.0734 13.7079 30.0734 13.7079C30.5556 13.5656 30.8734 13.5118 31.2313 13.5118C32.0621 13.5118 32.5024 13.8876 32.5014 14.5968C32.5032 14.7869 32.472 15.022 32.4232 15.3298C32.3393 15.8652 32.1591 17.0149 32.1344 17.2941Z" fill="#FFFFFE"/>
<path fill-rule="evenodd" clip-rule="evenodd" d="M29.8792 12.8976L29.7207 13.8848C29.3752 13.7101 29.1249 13.6393 28.8563 13.6393C28.1339 13.6393 27.6273 14.3419 27.6273 15.3439C27.6273 16.0343 27.9679 16.4514 28.5304 16.4514C28.7686 16.4514 29.0318 16.3773 29.3521 16.2181L29.1821 17.2548C28.8259 17.3526 28.5953 17.3881 28.3272 17.3881C27.2853 17.3881 26.6365 16.6344 26.6365 15.4242C26.6365 13.7979 27.5335 12.6614 28.8156 12.6614C29.2382 12.6614 29.7372 12.8415 29.8792 12.8976Z" fill="#FFFFFE"/>
<path fill-rule="evenodd" clip-rule="evenodd" d="M25.073 13.5516C24.9513 14.6966 24.7359 15.8564 24.5679 17.002L24.5238 17.2509H25.4918C25.8382 14.9886 25.9213 14.5471 26.4635 14.6022C26.5504 14.1392 26.7117 13.7337 26.8313 13.5293C26.4263 13.4443 26.1997 13.6747 25.9037 14.1127C25.927 13.9232 25.97 13.7394 25.9614 13.5516H25.073Z" fill="#FFFFFE"/>
<path fill-rule="evenodd" clip-rule="evenodd" d="M24.191 17.2086C23.8605 17.3104 23.5413 17.3586 23.2039 17.3583C22.127 17.3576 21.566 16.7914 21.566 15.708C21.566 14.443 22.2798 13.5118 23.2487 13.5118C24.0424 13.5118 24.5486 14.0331 24.5486 14.8514C24.5486 15.1225 24.5134 15.3871 24.4303 15.7608H22.5149C22.4498 16.2976 22.7914 16.5215 23.3507 16.5215C23.6948 16.5215 24.0055 16.4498 24.3511 16.2882L24.191 17.2086ZM23.6504 15.0148C23.6556 14.9374 23.7522 14.3544 23.2027 14.3544C22.8965 14.3544 22.6774 14.5899 22.5882 15.0148H23.6504Z" fill="#FFFFFE"/>
<path fill-rule="evenodd" clip-rule="evenodd" d="M21.1952 17.2897C20.9305 17.3736 20.724 17.4101 20.5002 17.4101C20.0056 17.4101 19.7355 17.1239 19.7355 16.5977C19.7287 16.4335 19.8069 16.0042 19.8683 15.6113C19.924 15.2654 20.2879 13.0867 20.2879 13.0867H21.2495L21.1371 13.6465H21.6308L21.4994 14.5355H21.004C20.8924 15.2396 20.7329 16.1155 20.7311 16.2317C20.7311 16.423 20.8325 16.5058 21.0626 16.5058C21.1728 16.5058 21.2581 16.4949 21.3235 16.471L21.1952 17.2897Z" fill="#FFFFFE"/>
<path fill-rule="evenodd" clip-rule="evenodd" d="M17.4252 14.7642C17.4252 15.2326 17.6509 15.5546 18.1623 15.7974C18.554 15.9828 18.6145 16.0377 18.6145 16.2057C18.6145 16.4363 18.4418 16.5404 18.0589 16.5404C17.7701 16.5404 17.5017 16.4953 17.1918 16.3948C17.1918 16.3948 17.0651 17.2099 17.059 17.2485C17.2789 17.2969 17.4751 17.3412 18.0658 17.3583C19.0869 17.3583 19.5585 16.9673 19.5585 16.1218C19.5585 15.6133 19.361 15.3151 18.8763 15.0912C18.4707 14.9034 18.4241 14.8618 18.4241 14.6889C18.4241 14.4889 18.5848 14.386 18.8976 14.386C19.0873 14.386 19.3469 14.4073 19.5928 14.4422L19.7306 13.5843C19.48 13.5444 19.1003 13.5118 18.8789 13.5118C17.7965 13.5118 17.422 14.0808 17.4252 14.7642Z" fill="#FFFFFE"/>
<path fill-rule="evenodd" clip-rule="evenodd" d="M16.2196 15.6462C16.1182 15.6343 16.0734 15.631 16.0037 15.631C15.4552 15.631 15.1776 15.8201 15.1776 16.1938C15.1776 16.4239 15.3131 16.5711 15.5245 16.5711C15.9187 16.5711 16.2028 16.1936 16.2196 15.6462ZM16.9233 17.2941C16.7944 17.2941 16.1217 17.2941 16.1217 17.2941L16.14 16.911C15.8955 17.2136 15.5692 17.3583 15.1259 17.3583C14.6016 17.3583 14.2421 16.9459 14.2421 16.3475C14.2421 15.4463 14.8673 14.9217 15.9407 14.9217C16.0506 14.9217 16.1911 14.9317 16.3351 14.9504C16.3651 14.828 16.373 14.776 16.373 14.7096C16.373 14.465 16.2044 14.3739 15.7525 14.3739C15.2789 14.3682 14.8887 14.4868 14.7282 14.5397C14.7383 14.4785 14.8624 13.7079 14.8624 13.7079C15.3445 13.5656 15.6625 13.5118 16.0204 13.5118C16.8513 13.5118 17.2913 13.8876 17.2904 14.5968C17.2921 14.7869 17.2609 15.022 17.2123 15.3298C17.1282 15.8652 16.9479 17.0149 16.9233 17.2941Z" fill="#FFFFFE"/>
<path fill-rule="evenodd" clip-rule="evenodd" d="M13.7558 17.3519H12.7883L13.3427 13.855L12.1051 17.3519H11.4456L11.3641 13.8753L10.7815 17.3519H9.87592L10.6324 12.8031H12.0238L12.0625 15.619L13.0014 12.8031H14.5041L13.7558 17.3519Z" fill="#FFFFFE"/>
</svg>
