<svg width="48" height="30" viewBox="0 0 48 30" fill="none" xmlns="http://www.w3.org/2000/svg">
<rect width="48" height="30" rx="4" fill="#2890C3"/>
<path fill-rule="evenodd" clip-rule="evenodd" d="M37.5254 11.4698L36.5709 17.7438C36.5523 17.8652 36.6432 17.9752 36.7622 17.9752H37.7224C37.8813 17.9752 38.0168 17.8556 38.0414 17.6933L38.9827 11.5321C39.0013 11.4106 38.9104 11.3007 38.7911 11.3007H37.717C37.6213 11.3007 37.5401 11.3722 37.5254 11.4698Z" fill="white"/>
<path fill-rule="evenodd" clip-rule="evenodd" d="M34.6608 15.7626C34.5531 16.42 34.0481 16.8615 33.4037 16.8615C33.0808 16.8615 32.822 16.754 32.6559 16.5507C32.4909 16.3494 32.4292 16.0622 32.4813 15.7428C32.5815 15.091 33.0949 14.6356 33.7294 14.6356C34.0457 14.6356 34.3024 14.744 34.4718 14.9491C34.6425 15.1557 34.7096 15.4445 34.6608 15.7626ZM36.2129 13.5231H35.0992C35.0038 13.5231 34.9225 13.5947 34.9075 13.6922L34.8587 14.0138L34.7807 13.8973C34.5396 13.5358 34.002 13.4147 33.4652 13.4147C32.2349 13.4147 31.1838 14.3781 30.9793 15.7292C30.8729 16.4033 31.024 17.0473 31.394 17.4968C31.7338 17.9098 32.2187 18.0817 32.7965 18.0817C33.7885 18.0817 34.3384 17.4237 34.3384 17.4237L34.2886 17.7434C34.27 17.8649 34.3609 17.9749 34.4802 17.9749H35.483C35.6422 17.9749 35.7775 17.8556 35.8023 17.6933L36.4045 13.7545C36.4231 13.6331 36.3319 13.5231 36.2129 13.5231Z" fill="white"/>
<path fill-rule="evenodd" clip-rule="evenodd" d="M29.5298 13.5506C29.4026 14.4131 28.7651 14.4131 28.1483 14.4131H27.7975L28.0437 12.8028C28.0584 12.7055 28.1396 12.634 28.235 12.634H28.396C28.8158 12.634 29.2122 12.634 29.4167 12.8809C29.5391 13.0286 29.576 13.248 29.5298 13.5506ZM29.2614 11.3003H26.9357C26.7764 11.3003 26.6412 11.4199 26.6163 11.5822L25.6759 17.7434C25.6573 17.8649 25.7485 17.9748 25.8673 17.9748H27.0607C27.172 17.9748 27.2667 17.8912 27.2841 17.7778L27.551 16.0309C27.5756 15.8685 27.7111 15.749 27.87 15.749H28.6059C30.1379 15.749 31.0222 14.9831 31.2531 13.4648C31.3572 12.8013 31.2573 12.2796 30.9565 11.9143C30.6258 11.5128 30.0396 11.3003 29.2614 11.3003Z" fill="white"/>
<path fill-rule="evenodd" clip-rule="evenodd" d="M25.556 13.5231H24.4366C24.3296 13.5231 24.2294 13.5779 24.1694 13.6696L22.6251 16.0191L21.9708 13.7613C21.9297 13.62 21.8038 13.5231 21.6611 13.5231H20.5609C20.428 13.5231 20.3345 13.6581 20.3773 13.7879L21.6098 17.5259L20.4505 19.2159C20.3596 19.3485 20.4514 19.5319 20.6088 19.5319H21.727C21.8329 19.5319 21.9321 19.4783 21.9927 19.3884L25.7152 13.8375C25.8043 13.7046 25.7125 13.5231 25.556 13.5231Z" fill="white"/>
<path fill-rule="evenodd" clip-rule="evenodd" d="M18.0723 15.7626C17.9647 16.42 17.4597 16.8615 16.8153 16.8615C16.4923 16.8615 16.2336 16.754 16.0674 16.5507C15.9028 16.3494 15.8407 16.0622 15.8929 15.7428C15.9931 15.091 16.5064 14.6356 17.1409 14.6356C17.4573 14.6356 17.714 14.744 17.8834 14.9491C18.054 15.1557 18.1212 15.4445 18.0723 15.7626ZM19.6244 13.5231H18.5107C18.4154 13.5231 18.3341 13.5947 18.3191 13.6922L18.2702 14.0138L18.1926 13.8973C17.9512 13.5358 17.4135 13.4147 16.8768 13.4147C15.6464 13.4147 14.5954 14.3781 14.3909 15.7292C14.2844 16.4033 14.4356 17.0473 14.8056 17.4968C15.1453 17.9098 15.6302 18.0817 16.2081 18.0817C17.2 18.0817 17.75 17.4237 17.75 17.4237L17.7002 17.7434C17.6816 17.8649 17.7725 17.9749 17.8918 17.9749H18.8945C19.0538 17.9749 19.189 17.8556 19.2139 17.6933L19.816 13.7545C19.8346 13.6331 19.7435 13.5231 19.6244 13.5231Z" fill="white"/>
<path fill-rule="evenodd" clip-rule="evenodd" d="M12.9413 13.5506C12.8142 14.4131 12.1766 14.4131 11.5598 14.4131H11.209L11.4552 12.8028C11.4699 12.7055 11.5511 12.634 11.6465 12.634H11.8075C12.2273 12.634 12.6237 12.634 12.8282 12.8809C12.9506 13.0286 12.9875 13.248 12.9413 13.5506ZM12.6729 11.3003H10.3472C10.1879 11.3003 10.0527 11.4199 10.0278 11.5822L9.08744 17.7434C9.06885 17.8649 9.15971 17.9748 9.27876 17.9748H10.3895C10.5484 17.9748 10.6836 17.8553 10.7085 17.6932L10.9625 16.0309C10.9871 15.8685 11.1226 15.749 11.2815 15.749H12.0174C13.5494 15.749 14.4337 14.9831 14.6646 13.4648C14.7687 12.8013 14.6688 12.2796 14.3681 11.9143C14.0373 11.5128 13.4511 11.3003 12.6729 11.3003Z" fill="white"/>
</svg>
