<svg width="48" height="30" viewBox="0 0 48 30" fill="none" xmlns="http://www.w3.org/2000/svg">
<rect width="48" height="30" rx="4" fill="#0066B2"/>
<path fill-rule="evenodd" clip-rule="evenodd" d="M37.6978 18.5079C37.6978 18.2443 37.9115 18.0306 38.1751 18.0306C38.4391 18.0306 38.6525 18.2443 38.6525 18.5079C38.6525 18.7713 38.4391 18.9851 38.1751 18.9851C37.9115 18.9851 37.6978 18.7713 37.6978 18.5079ZM38.1751 18.8702C38.376 18.8702 38.5382 18.708 38.5382 18.5079C38.5382 18.3071 38.376 18.1453 38.1751 18.1453C37.9751 18.1453 37.8127 18.3071 37.8127 18.5079C37.8127 18.708 37.9751 18.8702 38.1751 18.8702ZM38.1109 18.7171H38.0132V18.298H38.1903C38.2272 18.298 38.2646 18.2984 38.2973 18.319C38.3312 18.3428 38.3503 18.3823 38.3503 18.4238C38.3503 18.4717 38.323 18.5161 38.2781 18.5324L38.3548 18.7171H38.2461L38.1826 18.5511H38.1109V18.7171ZM38.1109 18.4794H38.1646C38.1849 18.4794 38.2067 18.4813 38.2244 18.4717C38.2405 18.4612 38.2489 18.4416 38.2489 18.4229C38.2489 18.4075 38.2391 18.3888 38.2253 18.3806C38.2081 18.3706 38.1809 18.3727 38.1627 18.3727H38.1109V18.4794Z" fill="white"/>
<path fill-rule="evenodd" clip-rule="evenodd" d="M35.3414 19.0149H37.4602L35.6129 10.2091H33.7581C32.9013 10.2091 32.6923 10.865 32.6923 10.865L29.2512 19.0149H31.6562L32.1372 17.7072H35.071L35.3414 19.0149ZM32.8023 15.9003L34.0146 12.6042L34.697 15.9003H32.8023Z" fill="white"/>
<path fill-rule="evenodd" clip-rule="evenodd" d="M29.4312 12.3266L29.7607 10.4355C29.7607 10.4355 28.7443 10.0516 27.6852 10.0516C26.5399 10.0516 23.8204 10.5489 23.8204 12.9668C23.8204 15.2422 27.0126 15.2706 27.0126 16.4646C27.0126 17.6593 24.1496 17.446 23.2043 16.6925L22.8616 18.6692C22.8616 18.6692 23.8916 19.1669 25.4666 19.1669C27.0408 19.1669 29.4173 18.3564 29.4173 16.1522C29.4173 13.8626 26.1965 13.6489 26.1965 12.6536C26.1965 11.658 28.4441 11.7859 29.4312 12.3266Z" fill="white"/>
<path fill-rule="evenodd" clip-rule="evenodd" d="M21.4395 19.0149H19.132L20.574 10.2091H22.8823L21.4395 19.0149Z" fill="white"/>
<path fill-rule="evenodd" clip-rule="evenodd" d="M14.9908 16.2658L17.1906 10.2091H19.6743L16.0027 19.0149H13.5984L11.5941 11.3646C10.2922 10.5878 9.18003 10.358 9.17966 10.358C9.18003 10.358 10.9283 10.718 12.6049 12.0661C14.2082 13.3555 14.7302 14.9619 14.7302 14.9619V14.9615L14.9908 16.2658Z" fill="white"/>
<path fill-rule="evenodd" clip-rule="evenodd" d="M14.7302 14.9619L13.9536 11.002C13.9536 11.002 13.8602 10.2091 12.8592 10.2091H9.22221L9.17966 10.358C9.18003 10.358 10.9283 10.718 12.6049 12.0661C14.2082 13.3555 14.7302 14.9619 14.7302 14.9619Z" fill="#F9A533"/>
</svg>
