<svg width="30" height="30" viewBox="0 0 30 30" fill="none" xmlns="http://www.w3.org/2000/svg">
<mask id="mask0" mask-type="alpha" maskUnits="userSpaceOnUse" x="7" y="3" width="16" height="24">
<path fill-rule="evenodd" clip-rule="evenodd" d="M23 15C23 12.46 21.81 10.19 19.96 8.73L19 3H11L10.05 8.73C8.19 10.19 7 12.45 7 15C7 17.55 8.19 19.81 10.05 21.27L11 27H19L19.96 21.27C21.81 19.81 23 17.54 23 15ZM9 15C9 11.69 11.69 9 15 9C18.31 9 21 11.69 21 15C21 18.31 18.31 21 15 21C11.69 21 9 18.31 9 15Z" fill="white"/>
</mask>
<g mask="url(#mask0)">
<rect x="2" y="2" width="26" height="26" fill="#D8D8D8"/>
</g>
</svg>
