<svg width="30" height="30" viewBox="0 0 30 30" fill="none" xmlns="http://www.w3.org/2000/svg">
<mask id="mask0" mask-type="alpha" maskUnits="userSpaceOnUse" x="5" y="8" width="20" height="14">
<path fill-rule="evenodd" clip-rule="evenodd" d="M23 8H7C5.9 8 5.01 8.9 5.01 10L5 20C5 21.1 5.9 22 7 22H23C24.1 22 25 21.1 25 20V10C25 8.9 24.1 8 23 8ZM14 11H16V13H14V11ZM14 14H16V16H14V14ZM11 11H13V13H11V11ZM11 14H13V16H11V14ZM10 16H8V14H10V16ZM10 13H8V11H10V13ZM19 20H11V18H19V20ZM19 16H17V14H19V16ZM19 13H17V11H19V13ZM22 16H20V14H22V16ZM22 13H20V11H22V13Z" fill="white"/>
</mask>
<g mask="url(#mask0)">
<rect x="2" y="2" width="26" height="26" fill="#D8D8D8"/>
</g>
</svg>
