<svg width="30" height="30" viewBox="0 0 30 30" fill="none" xmlns="http://www.w3.org/2000/svg">
<mask id="mask0" mask-type="alpha" maskUnits="userSpaceOnUse" x="6" y="6" width="18" height="18">
<path fill-rule="evenodd" clip-rule="evenodd" d="M18 12H12V18H18V12ZM16 16H14V14H16V16ZM24 14V12H22V10C22 8.9 21.1 8 20 8H18V6H16V8H14V6H12V8H10C8.9 8 8 8.9 8 10V12H6V14H8V16H6V18H8V20C8 21.1 8.9 22 10 22H12V24H14V22H16V24H18V22H20C21.1 22 22 21.1 22 20V18H24V16H22V14H24ZM20 20H10V10H20V20Z" fill="white"/>
</mask>
<g mask="url(#mask0)">
<rect x="2" y="2" width="26" height="26" fill="#D8D8D8"/>
</g>
</svg>
