<svg width="30" height="30" viewBox="0 0 30 30" fill="none" xmlns="http://www.w3.org/2000/svg">
<mask id="mask0" mask-type="alpha" maskUnits="userSpaceOnUse" x="8" y="5" width="14" height="20">
<path fill-rule="evenodd" clip-rule="evenodd" d="M20 5H10C8.9 5 8 5.9 8 7V23C8 24.1 8.9 24.99 10 24.99L20 25C21.1 25 22 24.1 22 23V7C22 5.9 21.1 5 20 5ZM15 7C16.1 7 17 7.9 17 9C17 10.1 16.1 11 15 11C13.89 11 13 10.1 13 9C13 7.9 13.89 7 15 7ZM15 23C12.24 23 10 20.76 10 18C10 15.24 12.24 13 15 13C17.76 13 20 15.24 20 18C20 20.76 17.76 23 15 23ZM15 15C13.34 15 12 16.34 12 18C12 19.66 13.34 21 15 21C16.66 21 18 19.66 18 18C18 16.34 16.66 15 15 15Z" fill="white"/>
</mask>
<g mask="url(#mask0)">
<rect x="2" y="2" width="26" height="26" fill="#D8D8D8"/>
</g>
</svg>
