<svg width="30" height="30" viewBox="0 0 30 30" fill="none" xmlns="http://www.w3.org/2000/svg">
<mask id="mask0" mask-type="alpha" maskUnits="userSpaceOnUse" x="9" y="4" width="13" height="22">
<path fill-rule="evenodd" clip-rule="evenodd" d="M19.5 4H11.5C10.12 4 9 5.12 9 6.5V23.5C9 24.88 10.12 26 11.5 26H19.5C20.88 26 22 24.88 22 23.5V6.5C22 5.12 20.88 4 19.5 4ZM15.5 25C14.67 25 14 24.33 14 23.5C14 22.67 14.67 22 15.5 22C16.33 22 17 22.67 17 23.5C17 24.33 16.33 25 15.5 25ZM20 21H11V7H20V21Z" fill="white"/>
</mask>
<g mask="url(#mask0)">
<rect x="2" y="2" width="26" height="26" fill="#D8D8D8"/>
</g>
</svg>
