<svg width="30" height="30" viewBox="0 0 30 30" fill="none" xmlns="http://www.w3.org/2000/svg">
<mask id="mask0" mask-type="alpha" maskUnits="userSpaceOnUse" x="6" y="8" width="19" height="15">
<path fill-rule="evenodd" clip-rule="evenodd" d="M7.5 14C6.67 14 6 14.67 6 15.5C6 16.33 6.67 17 7.5 17C8.33 17 9 16.33 9 15.5C9 14.67 8.33 14 7.5 14ZM7.5 8C6.67 8 6 8.67 6 9.5C6 10.33 6.67 11 7.5 11C8.33 11 9 10.33 9 9.5C9 8.67 8.33 8 7.5 8ZM7.5 20.17C6.76 20.17 6.17 20.77 6.17 21.5C6.17 22.23 6.77 22.83 7.5 22.83C8.23 22.83 8.83 22.23 8.83 21.5C8.83 20.77 8.24 20.17 7.5 20.17ZM10.5 22.5H24.5V20.5H10.5V22.5ZM10.5 16.5H24.5V14.5H10.5V16.5ZM10.5 8.5V10.5H24.5V8.5H10.5Z" fill="white"/>
</mask>
<g mask="url(#mask0)">
<rect x="2" y="2" width="26" height="26" fill="#D8D8D8"/>
</g>
</svg>
