<svg width="30" height="30" viewBox="0 0 30 30" fill="none" xmlns="http://www.w3.org/2000/svg">
<mask id="mask0" mask-type="alpha" maskUnits="userSpaceOnUse" x="5" y="6" width="20" height="19">
<path fill-rule="evenodd" clip-rule="evenodd" d="M19.5 6C17.76 6 16.09 6.81 15 8.09C13.91 6.81 12.24 6 10.5 6C7.42 6 5 8.42 5 11.5C5 15.28 8.4 18.36 13.55 23.04L15 24.35L16.45 23.03C21.6 18.36 25 15.28 25 11.5C25 8.42 22.58 6 19.5 6ZM15.1 21.55L15 21.65L14.9 21.55C10.14 17.24 7 14.39 7 11.5C7 9.5 8.5 8 10.5 8C12.04 8 13.54 8.99 14.07 10.36H15.94C16.46 8.99 17.96 8 19.5 8C21.5 8 23 9.5 23 11.5C23 14.39 19.86 17.24 15.1 21.55Z" fill="white"/>
</mask>
<g mask="url(#mask0)">
<rect x="2" y="2" width="26" height="26" fill="#D8D8D8"/>
</g>
</svg>
